<?xml version="1.0" encoding="UTF-8" standalone="no"?><svg xmlns="http://www.w3.org/2000/svg" height="500" width="800">
  <g id="sun" transform="translate(700,100)">
    
    
    
    <circle cx="0" cy="0" fill="red" r="60" stroke="" stroke-width="10"/>
  </g>
  <g id="tree" transform="translate(500,200)">
    <rect fill="brown" height="300" width="50" x="0" y="0"/>
    <circle cx="50" cy="40" fill="green" r="90" stroke="darkgreen" stroke-width="10"/>
    <circle cx="-40" cy="30" fill="green" r="100" stroke="darkgreen" stroke-width="10"/>
    <circle cx="40" cy="-20" fill="green" r="110" stroke="darkgreen" stroke-width="10"/>
    <circle cx="-30" cy="-30" fill="green" r="90" stroke="darkgreen" stroke-width="10"/>
    <circle cx="20" cy="-20" fill="green" r="60" stroke="darkgreen" stroke-width="10"/>
  </g>
  <g id="grass" transform="translate(0, 500)">
    <line stroke="green" stroke-linecap="round" stroke-width="5" x1="-10" x2="10" y1="0" y2="-100"/>
    <line stroke="green" stroke-linecap="round" stroke-width="5" x1="0" x2="20" y1="0" y2="-100"/>
    <line stroke="green" stroke-linecap="round" stroke-width="5" x1="10" x2="30" y1="0" y2="-100"/>
    <line stroke="green" stroke-linecap="round" stroke-width="5" x1="20" x2="40" y1="0" y2="-100"/>
    <line stroke="green" stroke-linecap="round" stroke-width="5" x1="30" x2="50" y1="0" y2="-100"/>
    <line stroke="green" stroke-linecap="round" stroke-width="5" x1="40" x2="60" y1="0" y2="-100"/>
    <line stroke="green" stroke-linecap="round" stroke-width="5" x1="50" x2="70" y1="0" y2="-100"/>
    <line stroke="green" stroke-linecap="round" stroke-width="5" x1="60" x2="80" y1="0" y2="-100"/>
    <line stroke="green" stroke-linecap="round" stroke-width="5" x1="70" x2="90" y1="0" y2="-100"/>
    <line stroke="green" stroke-linecap="round" stroke-width="5" x1="80" x2="100" y1="0" y2="-100"/>
    <line stroke="green" stroke-linecap="round" stroke-width="5" x1="90" x2="110" y1="0" y2="-100"/>
    <line stroke="green" stroke-linecap="round" stroke-width="5" x1="100" x2="120" y1="0" y2="-100"/>
    <line stroke="green" stroke-linecap="round" stroke-width="5" x1="110" x2="130" y1="0" y2="-100"/>
    <line stroke="green" stroke-linecap="round" stroke-width="5" x1="120" x2="140" y1="0" y2="-100"/>
    <line stroke="green" stroke-linecap="round" stroke-width="5" x1="130" x2="150" y1="0" y2="-100"/>
    <line stroke="green" stroke-linecap="round" stroke-width="5" x1="140" x2="160" y1="0" y2="-100"/>
    <line stroke="green" stroke-linecap="round" stroke-width="5" x1="150" x2="170" y1="0" y2="-100"/>
    <line stroke="green" stroke-linecap="round" stroke-width="5" x1="160" x2="180" y1="0" y2="-100"/>
    <line stroke="green" stroke-linecap="round" stroke-width="5" x1="170" x2="190" y1="0" y2="-100"/>
    <line stroke="green" stroke-linecap="round" stroke-width="5" x1="180" x2="200" y1="0" y2="-100"/>
    <line stroke="green" stroke-linecap="round" stroke-width="5" x1="190" x2="210" y1="0" y2="-100"/>
    <line stroke="green" stroke-linecap="round" stroke-width="5" x1="200" x2="220" y1="0" y2="-100"/>
    <line stroke="green" stroke-linecap="round" stroke-width="5" x1="210" x2="230" y1="0" y2="-100"/>
    <line stroke="green" stroke-linecap="round" stroke-width="5" x1="220" x2="240" y1="0" y2="-100"/>
    <line stroke="green" stroke-linecap="round" stroke-width="5" x1="230" x2="250" y1="0" y2="-100"/>
    <line stroke="green" stroke-linecap="round" stroke-width="5" x1="240" x2="260" y1="0" y2="-100"/>
    <line stroke="green" stroke-linecap="round" stroke-width="5" x1="250" x2="270" y1="0" y2="-100"/>
    <line stroke="green" stroke-linecap="round" stroke-width="5" x1="260" x2="280" y1="0" y2="-100"/>
    <line stroke="green" stroke-linecap="round" stroke-width="5" x1="270" x2="290" y1="0" y2="-100"/>
    <line stroke="green" stroke-linecap="round" stroke-width="5" x1="280" x2="300" y1="0" y2="-100"/>
    <line stroke="green" stroke-linecap="round" stroke-width="5" x1="290" x2="310" y1="0" y2="-100"/>
    <line stroke="green" stroke-linecap="round" stroke-width="5" x1="300" x2="320" y1="0" y2="-100"/>
    <line stroke="green" stroke-linecap="round" stroke-width="5" x1="310" x2="330" y1="0" y2="-100"/>
    <line stroke="green" stroke-linecap="round" stroke-width="5" x1="320" x2="340" y1="0" y2="-100"/>
    <line stroke="green" stroke-linecap="round" stroke-width="5" x1="330" x2="350" y1="0" y2="-100"/>
    <line stroke="green" stroke-linecap="round" stroke-width="5" x1="340" x2="360" y1="0" y2="-100"/>
    <line stroke="green" stroke-linecap="round" stroke-width="5" x1="350" x2="370" y1="0" y2="-100"/>
    <line stroke="green" stroke-linecap="round" stroke-width="5" x1="360" x2="380" y1="0" y2="-100"/>
    <line stroke="green" stroke-linecap="round" stroke-width="5" x1="370" x2="390" y1="0" y2="-100"/>
    <line stroke="green" stroke-linecap="round" stroke-width="5" x1="380" x2="400" y1="0" y2="-100"/>
    <line stroke="green" stroke-linecap="round" stroke-width="5" x1="390" x2="410" y1="0" y2="-100"/>
    <line stroke="green" stroke-linecap="round" stroke-width="5" x1="400" x2="420" y1="0" y2="-100"/>
    <line stroke="green" stroke-linecap="round" stroke-width="5" x1="410" x2="430" y1="0" y2="-100"/>
    <line stroke="green" stroke-linecap="round" stroke-width="5" x1="420" x2="440" y1="0" y2="-100"/>
    <line stroke="green" stroke-linecap="round" stroke-width="5" x1="430" x2="450" y1="0" y2="-100"/>
    <line stroke="green" stroke-linecap="round" stroke-width="5" x1="440" x2="460" y1="0" y2="-100"/>
    <line stroke="green" stroke-linecap="round" stroke-width="5" x1="450" x2="470" y1="0" y2="-100"/>
    <line stroke="green" stroke-linecap="round" stroke-width="5" x1="460" x2="480" y1="0" y2="-100"/>
    <line stroke="green" stroke-linecap="round" stroke-width="5" x1="470" x2="490" y1="0" y2="-100"/>
    <line stroke="green" stroke-linecap="round" stroke-width="5" x1="480" x2="500" y1="0" y2="-100"/>
    <line stroke="green" stroke-linecap="round" stroke-width="5" x1="490" x2="510" y1="0" y2="-100"/>
    <line stroke="green" stroke-linecap="round" stroke-width="5" x1="500" x2="520" y1="0" y2="-100"/>
    <line stroke="green" stroke-linecap="round" stroke-width="5" x1="510" x2="530" y1="0" y2="-100"/>
    <line stroke="green" stroke-linecap="round" stroke-width="5" x1="520" x2="540" y1="0" y2="-100"/>
    <line stroke="green" stroke-linecap="round" stroke-width="5" x1="530" x2="550" y1="0" y2="-100"/>
    <line stroke="green" stroke-linecap="round" stroke-width="5" x1="540" x2="560" y1="0" y2="-100"/>
    <line stroke="green" stroke-linecap="round" stroke-width="5" x1="550" x2="570" y1="0" y2="-100"/>
    <line stroke="green" stroke-linecap="round" stroke-width="5" x1="560" x2="580" y1="0" y2="-100"/>
    <line stroke="green" stroke-linecap="round" stroke-width="5" x1="570" x2="590" y1="0" y2="-100"/>
    <line stroke="green" stroke-linecap="round" stroke-width="5" x1="580" x2="600" y1="0" y2="-100"/>
    <line stroke="green" stroke-linecap="round" stroke-width="5" x1="590" x2="610" y1="0" y2="-100"/>
    <line stroke="green" stroke-linecap="round" stroke-width="5" x1="600" x2="620" y1="0" y2="-100"/>
    <line stroke="green" stroke-linecap="round" stroke-width="5" x1="610" x2="630" y1="0" y2="-100"/>
    <line stroke="green" stroke-linecap="round" stroke-width="5" x1="620" x2="640" y1="0" y2="-100"/>
    <line stroke="green" stroke-linecap="round" stroke-width="5" x1="630" x2="650" y1="0" y2="-100"/>
    <line stroke="green" stroke-linecap="round" stroke-width="5" x1="640" x2="660" y1="0" y2="-100"/>
    <line stroke="green" stroke-linecap="round" stroke-width="5" x1="650" x2="670" y1="0" y2="-100"/>
    <line stroke="green" stroke-linecap="round" stroke-width="5" x1="660" x2="680" y1="0" y2="-100"/>
    <line stroke="green" stroke-linecap="round" stroke-width="5" x1="670" x2="690" y1="0" y2="-100"/>
    <line stroke="green" stroke-linecap="round" stroke-width="5" x1="680" x2="700" y1="0" y2="-100"/>
    <line stroke="green" stroke-linecap="round" stroke-width="5" x1="690" x2="710" y1="0" y2="-100"/>
    <line stroke="green" stroke-linecap="round" stroke-width="5" x1="700" x2="720" y1="0" y2="-100"/>
    <line stroke="green" stroke-linecap="round" stroke-width="5" x1="710" x2="730" y1="0" y2="-100"/>
    <line stroke="green" stroke-linecap="round" stroke-width="5" x1="720" x2="740" y1="0" y2="-100"/>
    <line stroke="green" stroke-linecap="round" stroke-width="5" x1="730" x2="750" y1="0" y2="-100"/>
    <line stroke="green" stroke-linecap="round" stroke-width="5" x1="740" x2="760" y1="0" y2="-100"/>
    <line stroke="green" stroke-linecap="round" stroke-width="5" x1="750" x2="770" y1="0" y2="-100"/>
    <line stroke="green" stroke-linecap="round" stroke-width="5" x1="760" x2="780" y1="0" y2="-100"/>
    <line stroke="green" stroke-linecap="round" stroke-width="5" x1="770" x2="790" y1="0" y2="-100"/>
    <line stroke="green" stroke-linecap="round" stroke-width="5" x1="780" x2="800" y1="0" y2="-100"/>
    <line stroke="green" stroke-linecap="round" stroke-width="5" x1="790" x2="810" y1="0" y2="-100"/>
    <line stroke="green" stroke-linecap="round" stroke-width="5" x1="800" x2="820" y1="0" y2="-100"/>
  </g>
</svg>